<svg width="23" height="23" viewBox="0 0 23 23" fill="none" xmlns="http://www.w3.org/2000/svg">
<path d="M15.7904 2.02637C15.4907 2.02637 15.2475 2.21708 15.2475 2.45206C15.2475 2.68704 15.4907 2.87775 15.7904 2.87775C16.09 2.87775 16.3332 2.68704 16.3332 2.45206C16.3332 2.21708 16.09 2.02637 15.7904 2.02637Z" fill="black"/>
<path d="M7.10451 2.02637C6.80485 2.02637 6.56165 2.21708 6.56165 2.45206C6.56165 2.68704 6.80485 2.87775 7.10451 2.87775C7.40417 2.87775 7.64738 2.68704 7.64738 2.45206C7.64738 2.21708 7.40417 2.02637 7.10451 2.02637Z" fill="black"/>
<path d="M22.7381 21.3998L19.1459 18.4568C20.5971 18.416 21.7619 17.4781 21.7619 16.3302V3.69809C21.7619 3.01027 21.4554 2.33859 20.8986 1.80675C20.3414 1.27503 19.5609 0.908626 18.7011 0.775251C16.7743 0.475465 14.8017 0.323486 12.8378 0.323486H9.96983C8.10199 0.323486 6.15641 0.463801 4.18765 0.772356C2.41763 1.05005 1.133 2.27912 1.133 3.69469V16.3302C1.133 17.4877 2.31753 18.4317 3.78582 18.4575L0.153013 21.398C0.00128227 21.5207 -0.0420383 21.7028 0.0430288 21.8601C0.127987 22.0176 0.324885 22.1199 0.5429 22.1199H4.42439C4.59844 22.1199 4.76189 22.0544 4.86401 21.9439L6.51074 20.1616H16.4325L18.0792 21.944C18.1813 22.0544 18.3448 22.1199 18.5188 22.1199H22.346C22.5635 22.1199 22.7599 22.0181 22.8453 21.8614C22.9306 21.7045 22.8885 21.523 22.7381 21.3998ZM2.21873 16.3302V3.69469C2.21873 2.6835 3.13633 1.8056 4.40051 1.60722C6.17259 1.32948 8.04509 1.17491 9.96977 1.17491H12.8377C14.7309 1.17491 16.6324 1.32139 18.4899 1.61037C19.1041 1.70568 19.6617 1.96741 20.0595 2.3471C20.4571 2.72696 20.6761 3.20674 20.6761 3.69805V16.3302C20.6761 17.0344 19.9455 17.6073 19.0475 17.6073H3.84727C2.94932 17.6073 2.21873 17.0344 2.21873 16.3302ZM4.14737 21.2685H1.82472L5.29597 18.4588H6.74335L4.14737 21.2685ZM7.2974 19.3102L8.08407 18.4588H14.8592L15.6458 19.3102H7.2974ZM18.7959 21.2685L16.2 18.4588H17.6454L21.0749 21.2685H18.7959Z" fill="black"/>
<path d="M18.7287 4.11426H3.5284C3.22863 4.11426 2.98553 4.30489 2.98553 4.53996V11.6067C2.98553 11.8418 3.22863 12.0324 3.5284 12.0324H18.7287C19.0284 12.0324 19.2715 11.8418 19.2715 11.6067V4.53996C19.2715 4.30489 19.0284 4.11426 18.7287 4.11426ZM10.5857 11.181H4.07127V4.96567H10.5857V11.181ZM18.1858 11.181H11.6714V4.96567H18.1858V11.181Z" fill="black"/>
<path d="M13.619 2.02637H9.27608C8.97631 2.02637 8.73322 2.21699 8.73322 2.45206C8.73322 2.68712 8.97631 2.87775 9.27608 2.87775H13.619C13.9188 2.87775 14.1619 2.68712 14.1619 2.45206C14.1619 2.21699 13.9188 2.02637 13.619 2.02637Z" fill="black"/>
<path d="M17.419 12.9246C16.2216 12.9246 15.2475 13.6885 15.2475 14.6274C15.2475 15.5664 16.2216 16.3303 17.419 16.3303C18.6163 16.3303 19.5904 15.5664 19.5904 14.6274C19.5904 13.6885 18.6163 12.9246 17.419 12.9246ZM17.419 15.4789C16.8203 15.4789 16.3332 15.0969 16.3332 14.6274C16.3332 14.158 16.8203 13.776 17.419 13.776C18.0176 13.776 18.5047 14.158 18.5047 14.6274C18.5047 15.0969 18.0176 15.4789 17.419 15.4789Z" fill="black"/>
<path d="M5.47597 12.9246C4.27862 12.9246 3.3045 13.6885 3.3045 14.6274C3.3045 15.5664 4.27868 16.3303 5.47597 16.3303C6.67331 16.3303 7.64743 15.5664 7.64743 14.6274C7.64743 13.6885 6.67331 12.9246 5.47597 12.9246ZM5.47597 15.4789C4.87729 15.4789 4.39024 15.0969 4.39024 14.6274C4.39024 14.158 4.87729 13.776 5.47597 13.776C6.07464 13.776 6.5617 14.158 6.5617 14.6274C6.5617 15.0969 6.07464 15.4789 5.47597 15.4789Z" fill="black"/>
<path d="M13.619 13.3503H9.27608C8.97631 13.3503 8.73322 13.541 8.73322 13.776C8.73322 14.011 8.97631 14.2017 9.27608 14.2017H13.619C13.9188 14.2017 14.1619 14.011 14.1619 13.776C14.1619 13.541 13.9188 13.3503 13.619 13.3503Z" fill="black"/>
<path d="M13.619 15.0531H9.27608C8.97631 15.0531 8.73322 15.2437 8.73322 15.4788C8.73322 15.7139 8.97631 15.9045 9.27608 15.9045H13.619C13.9188 15.9045 14.1619 15.7139 14.1619 15.4788C14.1619 15.2437 13.9188 15.0531 13.619 15.0531Z" fill="black"/>
<path d="M15.7904 2.02637C15.4907 2.02637 15.2475 2.21708 15.2475 2.45206C15.2475 2.68704 15.4907 2.87775 15.7904 2.87775C16.09 2.87775 16.3332 2.68704 16.3332 2.45206C16.3332 2.21708 16.09 2.02637 15.7904 2.02637Z" fill="black"/>
<path d="M7.10451 2.02637C6.80485 2.02637 6.56165 2.21708 6.56165 2.45206C6.56165 2.68704 6.80485 2.87775 7.10451 2.87775C7.40417 2.87775 7.64738 2.68704 7.64738 2.45206C7.64738 2.21708 7.40417 2.02637 7.10451 2.02637Z" fill="black"/>
<path d="M22.7381 21.3998L19.1459 18.4568C20.5971 18.416 21.7619 17.4781 21.7619 16.3302V3.69809C21.7619 3.01027 21.4554 2.33859 20.8986 1.80675C20.3414 1.27503 19.5609 0.908626 18.7011 0.775251C16.7743 0.475465 14.8017 0.323486 12.8378 0.323486H9.96983C8.10199 0.323486 6.15641 0.463801 4.18765 0.772356C2.41763 1.05005 1.133 2.27912 1.133 3.69469V16.3302C1.133 17.4877 2.31753 18.4317 3.78582 18.4575L0.153013 21.398C0.00128227 21.5207 -0.0420383 21.7028 0.0430288 21.8601C0.127987 22.0176 0.324885 22.1199 0.5429 22.1199H4.42439C4.59844 22.1199 4.76189 22.0544 4.86401 21.9439L6.51074 20.1616H16.4325L18.0792 21.944C18.1813 22.0544 18.3448 22.1199 18.5188 22.1199H22.346C22.5635 22.1199 22.7599 22.0181 22.8453 21.8614C22.9306 21.7045 22.8885 21.523 22.7381 21.3998ZM2.21873 16.3302V3.69469C2.21873 2.6835 3.13633 1.8056 4.40051 1.60722C6.17259 1.32948 8.04509 1.17491 9.96977 1.17491H12.8377C14.7309 1.17491 16.6324 1.32139 18.4899 1.61037C19.1041 1.70568 19.6617 1.96741 20.0595 2.3471C20.4571 2.72696 20.6761 3.20674 20.6761 3.69805V16.3302C20.6761 17.0344 19.9455 17.6073 19.0475 17.6073H3.84727C2.94932 17.6073 2.21873 17.0344 2.21873 16.3302ZM4.14737 21.2685H1.82472L5.29597 18.4588H6.74335L4.14737 21.2685ZM7.2974 19.3102L8.08407 18.4588H14.8592L15.6458 19.3102H7.2974ZM18.7959 21.2685L16.2 18.4588H17.6454L21.0749 21.2685H18.7959Z" fill="black"/>
<path d="M13.619 2.02637H9.27608C8.97631 2.02637 8.73322 2.21699 8.73322 2.45206C8.73322 2.68712 8.97631 2.87775 9.27608 2.87775H13.619C13.9188 2.87775 14.1619 2.68712 14.1619 2.45206C14.1619 2.21699 13.9188 2.02637 13.619 2.02637Z" fill="black"/>
<path d="M17.419 12.9246C16.2216 12.9246 15.2475 13.6885 15.2475 14.6274C15.2475 15.5664 16.2216 16.3303 17.419 16.3303C18.6163 16.3303 19.5904 15.5664 19.5904 14.6274C19.5904 13.6885 18.6163 12.9246 17.419 12.9246ZM17.419 15.4789C16.8203 15.4789 16.3332 15.0969 16.3332 14.6274C16.3332 14.158 16.8203 13.776 17.419 13.776C18.0176 13.776 18.5047 14.158 18.5047 14.6274C18.5047 15.0969 18.0176 15.4789 17.419 15.4789Z" fill="black"/>
<path d="M5.47597 12.9246C4.27862 12.9246 3.3045 13.6885 3.3045 14.6274C3.3045 15.5664 4.27868 16.3303 5.47597 16.3303C6.67331 16.3303 7.64743 15.5664 7.64743 14.6274C7.64743 13.6885 6.67331 12.9246 5.47597 12.9246ZM5.47597 15.4789C4.87729 15.4789 4.39024 15.0969 4.39024 14.6274C4.39024 14.158 4.87729 13.776 5.47597 13.776C6.07464 13.776 6.5617 14.158 6.5617 14.6274C6.5617 15.0969 6.07464 15.4789 5.47597 15.4789Z" fill="black"/>
<path d="M13.619 13.3503H9.27608C8.97631 13.3503 8.73322 13.541 8.73322 13.776C8.73322 14.011 8.97631 14.2017 9.27608 14.2017H13.619C13.9188 14.2017 14.1619 14.011 14.1619 13.776C14.1619 13.541 13.9188 13.3503 13.619 13.3503Z" fill="black"/>
<path d="M13.619 15.0531H9.27608C8.97631 15.0531 8.73322 15.2437 8.73322 15.4788C8.73322 15.7139 8.97631 15.9045 9.27608 15.9045H13.619C13.9188 15.9045 14.1619 15.7139 14.1619 15.4788C14.1619 15.2437 13.9188 15.0531 13.619 15.0531Z" fill="black"/>
</svg>
