<svg width="40" height="35" viewBox="0 0 40 35" fill="none" xmlns="http://www.w3.org/2000/svg">
<path d="M36.875 34.3335H3.125C1.40195 34.3335 0 32.6779 0 30.643V4.07159C0 2.03676 1.40195 0.381119 3.125 0.381119H36.875C38.598 0.381119 40 2.03676 40 4.07159V30.643C40 32.6779 38.598 34.3335 36.875 34.3335Z" fill="#5D647F"/>
<path d="M13.75 19.5716H6.25C5.55961 19.5716 5 20.2325 5 21.0478V26.9525C5 27.7678 5.55961 28.4287 6.25 28.4287H13.75C14.4404 28.4287 15 27.7678 15 26.9525V21.0478C15 20.2325 14.4404 19.5716 13.75 19.5716Z" fill="#FFD100"/>
<path d="M9.375 9.97408H6.25C5.55961 9.97408 5 10.6349 5 11.4503V12.1884C5 13.0037 5.55961 13.6646 6.25 13.6646H9.375C10.0654 13.6646 10.625 13.0037 10.625 12.1884V11.4503C10.625 10.6349 10.0654 9.97408 9.375 9.97408Z" fill="#B8BAC0"/>
<path d="M17.5 9.97649H14.375C13.6846 9.97649 13.125 10.6374 13.125 11.4527V12.1908C13.125 13.0061 13.6846 13.6669 14.375 13.6669H17.5C18.1904 13.6669 18.75 13.0061 18.75 12.1908V11.4527C18.75 10.6374 18.1904 9.97649 17.5 9.97649Z" fill="#B8BAC0"/>
<path d="M25.625 9.97649H22.5C21.8096 9.97649 21.25 10.6374 21.25 11.4527V12.1908C21.25 13.0061 21.8096 13.6669 22.5 13.6669H25.625C26.3154 13.6669 26.875 13.0061 26.875 12.1908V11.4527C26.875 10.6374 26.3154 9.97649 25.625 9.97649Z" fill="#B8BAC0"/>
<path d="M33.75 9.97649H30.625C29.9346 9.97649 29.375 10.6374 29.375 11.4527V12.1908C29.375 13.0061 29.9346 13.6669 30.625 13.6669H33.75C34.4404 13.6669 35 13.0061 35 12.1908V11.4527C35 10.6374 34.4404 9.97649 33.75 9.97649Z" fill="#B8BAC0"/>
<path d="M18.125 5.54781H5.625C5.27953 5.54781 5 5.87829 5 6.2859C5 6.69351 5.27953 7.02399 5.625 7.02399H18.125C18.4705 7.02399 18.75 6.69351 18.75 6.2859C18.75 5.87829 18.4705 5.54781 18.125 5.54781Z" fill="#8A8895"/>
<path d="M26.25 5.54781H20.625C20.2795 5.54781 20 5.87829 20 6.2859C20 6.69351 20.2795 7.02399 20.625 7.02399H26.25C26.5955 7.02399 26.875 6.69351 26.875 6.2859C26.875 5.87829 26.5955 5.54781 26.25 5.54781Z" fill="#8A8895"/>
<path d="M28.7501 21.0476C28.0634 20.1417 27.0656 19.5716 25.9551 19.5716C23.884 19.5716 22.2051 21.5543 22.2051 24.0002C22.2051 26.446 23.884 28.4287 25.9551 28.4287C27.0655 28.4287 28.0631 27.8588 28.7498 26.9532" fill="#FF4F19"/>
<path d="M15 23.2621H8.75V24.7382H15V26.2144H8.75V28.4287H7.5V19.5716H8.75V21.7859H15V23.2621Z" fill="#FF9500"/>
<path d="M31.25 19.5716C33.3211 19.5716 35 21.5543 35 24.0002C35 26.446 33.3211 28.4287 31.25 28.4287C29.1789 28.4287 27.5 26.446 27.5 24.0002C27.5 21.5543 29.1789 19.5716 31.25 19.5716Z" fill="#FFD100"/>
</svg>
