<svg width="18" height="15" viewBox="0 0 18 15" fill="none" xmlns="http://www.w3.org/2000/svg">
<path d="M17.4375 2.20801H0.562487C0.251974 2.20801 0 1.81345 0 1.32739C0 0.841261 0.25202 0.446777 0.562487 0.446777H17.4375C17.748 0.446777 18 0.841334 18 1.32739C18 1.81345 17.748 2.20801 17.4375 2.20801Z" fill="#0B837B"/>
<path d="M0.562487 6.61121H17.4375C17.748 6.61121 18 7.00576 18 7.49182C18 7.97788 17.748 8.37244 17.4375 8.37244H0.562487C0.251974 8.37244 0 7.97788 0 7.49182C0 7.00576 0.251974 6.61121 0.562487 6.61121Z" fill="#0B837B"/>
<path d="M0.562502 12.7758H11.8125C12.123 12.7758 12.375 13.1703 12.375 13.6564C12.375 14.1425 12.123 14.537 11.8125 14.537H0.562502C0.251988 14.537 1.52588e-05 14.1424 1.52588e-05 13.6564C-3.14713e-05 13.1702 0.251988 12.7758 0.562502 12.7758Z" fill="#0B837B"/>
</svg>
