<svg width="18" height="19" viewBox="0 0 18 19" fill="none" xmlns="http://www.w3.org/2000/svg">
<path d="M1.84493 19.0001H3.30748V9.84294C3.31149 9.79905 3.31787 9.75525 3.31787 9.71027C3.31787 5.75964 5.86642 2.54597 8.99859 2.54597C12.1304 2.54597 14.6789 5.75964 14.6789 9.71027C14.6789 9.77069 14.686 9.82923 14.6932 9.88761V19.0001H16.156C17.174 19.0001 18 17.9312 18 16.6123V11.837C18 10.7494 17.437 9.83314 16.6684 9.54483C16.5976 4.29653 13.1854 0.0527344 8.9989 0.0527344C4.81124 0.0527344 1.39854 4.29692 1.32852 9.54687C0.560944 9.83557 0 10.7511 0 11.8378V16.6123C0 17.9304 0.825945 19.0001 1.84493 19.0001Z" fill="#DA5649"/>
</svg>
