<svg width="22" height="22" viewBox="0 0 22 22" fill="none" xmlns="http://www.w3.org/2000/svg">
<g clip-path="url(#clip0)">
<path d="M21.7659 8.94016L11.3376 1.30474C11.1365 1.15753 10.8633 1.15753 10.6623 1.30474L0.233867 8.94016C-0.0208511 9.12669 -0.0761948 9.48436 0.110332 9.73908C0.29686 9.9938 0.654574 10.0491 0.90925 9.86262L10.9999 2.4744L21.0905 9.86257C21.1923 9.93712 21.3105 9.973 21.4278 9.973C21.6038 9.973 21.7774 9.89201 21.8894 9.73904C22.076 9.48436 22.0206 9.12669 21.7659 8.94016Z" fill="black"/>
<path d="M19.0027 9.99219C18.6871 9.99219 18.4311 10.2481 18.4311 10.5638V19.6624H13.8583V14.6958C13.8583 13.1197 12.576 11.8375 11 11.8375C9.42402 11.8375 8.14175 13.1198 8.14175 14.6958V19.6624H3.56889V10.5638C3.56889 10.2482 3.31292 9.99223 2.99727 9.99223C2.68162 9.99223 2.42566 10.2482 2.42566 10.5638V20.2341C2.42566 20.5498 2.68162 20.8057 2.99727 20.8057H8.71336C9.01397 20.8057 9.25997 20.5735 9.28274 20.2786C9.28412 20.2652 9.28498 20.2506 9.28498 20.2341V14.6958C9.28498 13.7501 10.0543 12.9808 11 12.9808C11.9457 12.9808 12.7151 13.7502 12.7151 14.6958V20.2341C12.7151 20.2505 12.7159 20.2649 12.7173 20.2781C12.7398 20.5732 12.9859 20.8057 13.2867 20.8057H19.0028C19.3185 20.8057 19.5744 20.5498 19.5744 20.2341V10.5638C19.5744 10.2481 19.3184 9.99219 19.0027 9.99219Z" fill="black"/>
</g>
<defs>
<clipPath id="clip0">
<rect width="22" height="22" fill="white"/>
</clipPath>
</defs>
</svg>
