<svg width="17" height="17" viewBox="0 0 17 17" fill="none" xmlns="http://www.w3.org/2000/svg">
<path d="M14.4766 13.6797H14.1067C13.3705 12.2963 12.9824 10.7458 12.9824 9.17658V6.87305C12.9824 4.98767 11.8123 3.37058 10.1602 2.70947V1.66016C10.1602 0.744746 9.41541 0 8.5 0C7.58459 0 6.83984 0.744746 6.83984 1.66016V2.70947C5.18772 3.37058 4.01758 4.98764 4.01758 6.87305V9.17658C4.01758 10.7457 3.62953 12.2963 2.89332 13.6797H2.52344C2.24838 13.6797 2.02539 13.9027 2.02539 14.1777C2.02539 14.4528 2.24838 14.6758 2.52344 14.6758H5.72263C5.95863 15.9951 7.11377 17 8.5 17C9.88623 17 11.0413 15.9951 11.2774 14.6758H14.4766C14.7516 14.6758 14.9746 14.4528 14.9746 14.1777C14.9746 13.9027 14.7516 13.6797 14.4766 13.6797ZM7.83594 1.66016C7.83594 1.29399 8.13384 0.996094 8.5 0.996094C8.86616 0.996094 9.16406 1.29399 9.16406 1.66016V2.4399C8.94731 2.40756 8.72562 2.39062 8.5 2.39062C8.27438 2.39062 8.05269 2.40756 7.83594 2.4399V1.66016ZM5.01367 6.87305C5.01367 4.95069 6.57764 3.38672 8.5 3.38672C10.4224 3.38672 11.9863 4.95069 11.9863 6.87305V9.17658C11.9863 9.91074 12.0633 10.6412 12.2138 11.3555H4.78623C4.93671 10.6412 5.01367 9.91074 5.01367 9.17658V6.87305ZM4.52522 12.3516H12.4748C12.6173 12.8048 12.7902 13.2486 12.9928 13.6797H4.00715C4.20979 13.2486 4.38271 12.8048 4.52522 12.3516ZM8.5 16.0039C7.66571 16.0039 6.96084 15.4413 6.74342 14.6758H10.2565C10.0392 15.4413 9.33429 16.0039 8.5 16.0039Z" fill="#D93030"/>
<path d="M15.9803 6.03479C15.7859 5.84029 15.4705 5.84029 15.276 6.03479C15.0815 6.2293 15.0815 6.54463 15.276 6.73913C15.7455 7.20859 16.004 7.83394 16.004 8.49999C16.004 9.16605 15.7455 9.79139 15.276 10.2609C15.0815 10.4554 15.0815 10.7707 15.276 10.9652C15.3733 11.0624 15.5007 11.1111 15.6282 11.1111C15.7556 11.1111 15.8831 11.0624 15.9803 10.9652C16.638 10.3076 17.0001 9.4321 17.0001 8.49999C17.0001 7.56788 16.638 6.69238 15.9803 6.03479Z" fill="#D93030"/>
<path d="M13.8671 7.44373C13.6726 7.63823 13.6726 7.95356 13.8671 8.14807C13.9611 8.24213 14.013 8.36721 14.013 8.50025C14.013 8.6333 13.9611 8.75834 13.8671 8.85244C13.6726 9.04694 13.6726 9.36227 13.8671 9.55678C13.9643 9.65403 14.0918 9.70267 14.2192 9.70267C14.3467 9.70267 14.4742 9.65406 14.5714 9.55678C15.154 8.97423 15.154 8.02631 14.5714 7.44373C14.3769 7.24923 14.0616 7.24923 13.8671 7.44373Z" fill="#D93030"/>
<path d="M1.72411 6.03478C1.52963 5.84031 1.2143 5.84028 1.01977 6.03478C0.362146 6.69237 0 7.56787 0 8.49998C0 9.43209 0.362146 10.3076 1.01977 10.9652C1.11702 11.0624 1.24449 11.1111 1.37192 11.1111C1.49935 11.1111 1.62685 11.0625 1.72407 10.9652C1.91858 10.7707 1.91858 10.4553 1.72407 10.2608C1.25465 9.79138 0.996094 9.16604 0.996094 8.49998C0.996094 7.83393 1.25465 7.20858 1.72411 6.73912C1.91861 6.54462 1.91861 6.22929 1.72411 6.03478Z" fill="#D93030"/>
<path d="M2.78058 9.70243C2.90804 9.70243 3.03551 9.65382 3.13273 9.55653C3.32723 9.36203 3.32723 9.0467 3.13273 8.85219C3.03866 8.75813 2.98684 8.63305 2.98684 8.50001C2.98684 8.36696 3.03866 8.24192 3.13273 8.14782C3.32723 7.95332 3.32723 7.63799 3.13273 7.44349C2.93826 7.24898 2.6229 7.24898 2.42839 7.44349C1.84581 8.02603 1.84581 8.97395 2.42839 9.55653C2.52564 9.65382 2.65311 9.70243 2.78058 9.70243Z" fill="#D93030"/>
</svg>
