<svg width="25" height="26" viewBox="0 0 25 26" fill="none" xmlns="http://www.w3.org/2000/svg">
<path d="M24.0102 6.10425L12.6593 0.624536C12.5586 0.576001 12.4414 0.576001 12.3408 0.624536L0.989819 6.10425C0.863257 6.16533 0.782837 6.2935 0.782837 6.43403V19.7419C0.782837 19.8824 0.863257 20.0106 0.989819 20.0717L12.3408 25.5514C12.3911 25.5757 12.4456 25.5878 12.5 25.5878C12.5545 25.5878 12.6089 25.5757 12.6593 25.5514L24.0102 20.0717C24.1368 20.0106 24.2172 19.8824 24.2172 19.7419V6.43408C24.2172 6.29345 24.1367 6.16538 24.0102 6.10425ZM12.5 1.361L23.0087 6.43403L19.9624 7.90461C19.9431 7.88992 19.9228 7.87634 19.9004 7.86555L9.46316 2.82704L12.5 1.361ZM8.63611 3.2411L19.1295 8.30676L16.9803 9.34429L6.49128 4.28069L8.63611 3.2411ZM19.375 9.00147V12.8367L17.3675 13.8058V9.9706L19.375 9.00147ZM23.4848 19.5121L12.8662 24.6381V12.1436L15.3991 10.9208C15.5812 10.8329 15.6576 10.614 15.5697 10.4318C15.4817 10.2497 15.2628 10.1733 15.0806 10.2613L12.5 11.5071L11.4846 11.0169C11.3024 10.9288 11.0835 11.0053 10.9956 11.1874C10.9076 11.3696 10.984 11.5885 11.1661 11.6764L12.1338 12.1436V24.6381L1.51526 19.512V7.01747L9.6012 10.921C9.65252 10.9458 9.70676 10.9575 9.76013 10.9575C9.89627 10.9575 10.027 10.8812 10.0902 10.7504C10.1781 10.5683 10.1017 10.3494 9.91961 10.2614L1.99138 6.43403L5.62932 4.6778L16.63 9.98842C16.6316 9.99067 16.6334 9.99267 16.6351 9.99487V14.3893C16.6351 14.5153 16.6999 14.6325 16.8066 14.6995C16.8659 14.7367 16.9335 14.7555 17.0013 14.7555C17.0556 14.7555 17.1101 14.7434 17.1605 14.7191L19.9004 13.3964C20.027 13.3353 20.1074 13.2072 20.1074 13.0666V8.64796L23.4848 7.01752V19.5121Z" fill="black"/>
<path d="M4.53749 18.0923L2.87172 17.2881C2.68949 17.2001 2.47064 17.2766 2.3827 17.4587C2.29476 17.6408 2.37113 17.8598 2.55326 17.9477L4.21903 18.7519C4.27035 18.7767 4.3246 18.7884 4.37797 18.7884C4.5141 18.7884 4.64486 18.7121 4.708 18.5813C4.79598 18.3991 4.71962 18.1803 4.53749 18.0923Z" fill="black"/>
<path d="M6.07042 17.0945L2.87388 15.5513C2.6917 15.4633 2.47281 15.5397 2.38487 15.7219C2.29698 15.904 2.37335 16.123 2.55547 16.2109L5.75201 17.7541C5.80333 17.7789 5.85757 17.7906 5.91094 17.7906C6.04708 17.7906 6.17784 17.7144 6.24097 17.5835C6.32891 17.4013 6.25254 17.1824 6.07042 17.0945Z" fill="black"/>
</svg>
