<svg width="25" height="26" viewBox="0 0 25 26" fill="none" xmlns="http://www.w3.org/2000/svg">
<path d="M20.3125 21.3889C20.043 21.3889 19.8242 21.6077 19.8242 21.8772C19.8242 22.1467 20.043 22.3655 20.3125 22.3655C20.582 22.3655 20.8008 22.1467 20.8008 21.8772C20.8008 21.6077 20.582 21.3889 20.3125 21.3889Z" fill="#B2B2B2"/>
<path d="M21.7773 2.90415V2.05298C21.7773 1.24526 21.1202 0.588135 20.3125 0.588135H4.6875C3.87979 0.588135 3.22266 1.24526 3.22266 2.05298V2.90415C0.0377443 8.78618 0.000146484 8.61152 0 8.88838C0 8.88857 0 8.88872 0 8.88892V9.86548C0 10.7118 0.489355 11.4989 1.26953 11.9465V25.0999C1.26953 25.3695 1.48818 25.5881 1.75781 25.5881H23.2422C23.5118 25.5881 23.7305 25.3695 23.7305 25.0999V11.9465C24.5028 11.4993 25 10.7029 25 9.86548V8.88892C25 8.88872 25 8.88857 25 8.88838C24.9999 8.60855 24.9312 8.72881 21.7773 2.90415ZM23.6859 8.40063H20.6645L19.0369 3.51782H21.0004L23.6859 8.40063ZM16.8945 9.3772H19.8242V9.86548C19.8242 10.6732 19.1671 11.3303 18.3594 11.3303C17.5517 11.3303 16.8945 10.6732 16.8945 9.86548V9.3772ZM16.8199 8.40063L16.0061 3.51782H18.0074L19.635 8.40063H16.8199ZM4.19922 2.05298C4.19922 1.78374 4.41826 1.5647 4.6875 1.5647H20.3125C20.5817 1.5647 20.8008 1.78374 20.8008 2.05298V2.54126C20.3358 2.54126 4.66777 2.54126 4.19922 2.54126V2.05298ZM15.918 9.3772V9.86548C15.918 10.6732 15.2608 11.3303 14.4531 11.3303C13.6454 11.3303 12.9883 10.6732 12.9883 9.86548V9.3772H15.918ZM12.9883 8.40063V3.51782H15.0161L15.8299 8.40063H12.9883ZM9.17017 8.40063L9.98398 3.51782H12.0117V8.40063H9.17017ZM12.0117 9.3772V9.86548C12.0117 10.6732 11.3546 11.3303 10.5469 11.3303C9.73916 11.3303 9.08203 10.6732 9.08203 9.86548V9.3772H12.0117ZM5.36494 8.40063L6.99253 3.51782H8.9939L8.18008 8.40063H5.36494ZM8.10547 9.3772V9.86548C8.10547 10.6732 7.44834 11.3303 6.64062 11.3303C5.83291 11.3303 5.17578 10.6732 5.17578 9.86548V9.3772H8.10547ZM3.99961 3.51782H5.96313L4.33555 8.40063H1.31406L3.99961 3.51782ZM0.976562 9.86548V9.3772H4.19922V9.86548C4.19922 10.6321 3.4312 11.3303 2.58789 11.3303C2.37529 11.3303 2.15498 11.2842 1.9499 11.1964C1.36772 10.9488 0.976562 10.4139 0.976562 9.86548ZM10.0586 24.6116H5.17578V20.4124H10.0586V24.6116ZM10.0586 19.4358H5.17578V15.2366H10.0586V19.4358ZM22.7539 24.6116H11.0352V14.7483C11.0352 14.4787 10.8165 14.26 10.5469 14.26H4.6875C4.41787 14.26 4.19922 14.4787 4.19922 14.7483V24.6116H2.24609V12.283C2.35928 12.2984 2.47329 12.3069 2.58789 12.3069C3.23052 12.3069 3.88013 12.0523 4.37002 11.6083C4.47837 11.5102 4.57593 11.4052 4.66348 11.2952C5.10752 11.9076 5.82812 12.3069 6.64062 12.3069C7.43843 12.3069 8.14795 11.9222 8.59375 11.3286C9.03955 11.9222 9.74907 12.3069 10.5469 12.3069C11.3447 12.3069 12.0542 11.9222 12.5 11.3286C12.9458 11.9222 13.6553 12.3069 14.4531 12.3069C15.2509 12.3069 15.9604 11.9222 16.4062 11.3286C16.8521 11.9222 17.5616 12.3069 18.3594 12.3069C19.1719 12.3069 19.8925 11.9076 20.3365 11.2952C20.4241 11.4052 20.5216 11.5102 20.63 11.6083C21.1199 12.0523 21.7695 12.3069 22.4121 12.3069C22.5265 12.3069 22.6405 12.2987 22.7539 12.2832V24.6116ZM24.0234 9.86548C24.0234 10.4293 23.6177 10.9704 23.014 11.2119C22.8165 11.2905 22.6141 11.3303 22.4121 11.3303C21.5688 11.3303 20.8008 10.6321 20.8008 9.86548V9.3772H24.0234V9.86548Z" fill="#B2B2B2"/>
<path d="M21.2891 19.4358H20.8008V14.7483C20.8008 14.4787 20.5821 14.26 20.3125 14.26H14.4531C14.1835 14.26 13.9648 14.4787 13.9648 14.7483V19.4358H13.4766C13.2069 19.4358 12.9883 19.6544 12.9883 19.9241C12.9883 20.1937 13.2069 20.4124 13.4766 20.4124H21.2891C21.5587 20.4124 21.7773 20.1937 21.7773 19.9241C21.7773 19.6544 21.5587 19.4358 21.2891 19.4358ZM19.8242 19.4358H14.9414V15.2366H19.8242V19.4358Z" fill="#B2B2B2"/>
<path d="M18.3594 21.3889H14.4531C14.1835 21.3889 13.9648 21.6076 13.9648 21.8772C13.9648 22.1468 14.1835 22.3655 14.4531 22.3655H18.3594C18.629 22.3655 18.8477 22.1468 18.8477 21.8772C18.8477 21.6076 18.629 21.3889 18.3594 21.3889Z" fill="#B2B2B2"/>
</svg>
