<svg width="25" height="26" viewBox="0 0 25 26" fill="none" xmlns="http://www.w3.org/2000/svg">
<path d="M23.6732 8.30171H19.4337C18.7021 8.30171 18.1069 8.89722 18.1069 9.62925V14.5088H16.5211C16.6093 14.1885 16.6419 13.8106 16.6205 13.3709V13.3708C16.5861 11.5125 16.2489 9.94624 15.6182 8.71567C15.1284 7.76025 14.5569 7.18745 14.0665 6.84502C14.6421 6.25317 14.9749 5.41123 14.9749 4.44019C14.9749 2.69307 13.5812 1.27173 11.8682 1.27173C10.1551 1.27173 8.76143 2.69307 8.76143 4.44019C8.76143 4.64248 8.92539 4.8064 9.12764 4.8064H9.37647C9.35357 4.94458 9.34136 5.0854 9.34136 5.22842C9.34136 6.45967 10.2211 7.48872 11.3843 7.71934C11.2624 8.17207 11.2018 8.70591 11.2021 9.31235L10.2887 10.0979L8.06626 10.2777L5.50264 9.43023C5.26768 9.3521 5.00137 9.26382 4.77031 9.43042C4.54263 9.59473 4.54263 9.88237 4.54263 9.97686V11.8829C4.54263 12.0852 4.70659 12.2491 4.90884 12.2491H5.34482L4.67612 14.5598C4.61992 14.7541 4.73184 14.9572 4.92612 15.0134C5.12051 15.0699 5.32349 14.9577 5.37974 14.7634L6.10737 12.2491H7.14849C5.85357 16.1979 6.59243 18.8337 7.72813 21.5013H7.06982L4.32798 18.4355L4.90776 16.4326C4.96401 16.2383 4.8521 16.0353 4.65781 15.9791C4.46353 15.9229 4.26045 16.0348 4.2042 16.229L3.64966 18.1449C1.93452 18.1163 0.400342 19.2988 0.00937554 21.0001C-0.0358881 21.1972 0.0871099 21.3937 0.284131 21.439L0.804004 21.5586C0.671192 22.9381 1.57964 24.2396 2.96509 24.5585C3.17549 24.607 3.3877 24.6309 3.59844 24.6309C4.11816 24.6309 4.62876 24.4852 5.08037 24.2022C5.6104 23.87 6.00532 23.3817 6.21904 22.8047L6.62925 22.8991C6.75147 22.9273 6.86738 22.9417 6.9832 22.8793C7.09097 22.8213 7.1626 22.7166 7.18945 22.5983C7.21524 22.4785 7.23486 22.3566 7.24849 22.2337H14.9076C15.1525 23.7565 16.4481 24.9044 17.9956 24.9044C19.543 24.9044 20.8387 23.7565 21.0836 22.2337H21.3631C21.3631 22.2337 21.4186 22.2343 21.4312 22.2343C21.5359 22.2343 21.6872 22.2227 21.8114 22.0963C21.8736 22.0331 21.9465 21.92 21.9409 21.7402C21.9306 21.3963 21.879 21.0641 21.7909 20.7482C22.0826 18.9773 21.802 17.8988 21.3859 17.0547C21.6489 16.8823 21.8233 16.5852 21.8233 16.2477V15.2412H23.6731C24.4047 15.2412 24.9999 14.6457 24.9999 13.9137V9.6292C25 8.89722 24.4048 8.30171 23.6732 8.30171ZM4.69146 23.5816C4.22266 23.8754 3.66797 23.9688 3.12949 23.8449H3.12944C2.13833 23.6168 1.4771 22.7079 1.52529 21.7252L5.49761 22.6395C5.33325 23.0264 5.05518 23.3537 4.69146 23.5816ZM6.52388 22.1233L0.827344 20.8125C1.26694 19.6087 2.44995 18.8118 3.74307 18.8804L6.53364 22.0005C6.5312 22.0417 6.52798 22.0826 6.52388 22.1233ZM12.0554 15.7417C11.9491 16.0221 11.9491 16.3678 11.9491 16.8462V18.2282H10.6081V16.3323C10.6081 14.1888 11.7779 13.8068 12.3029 13.7438H15.8932C15.8788 14.2303 15.769 14.5761 15.5606 14.7956C15.3177 15.0513 14.9021 15.1759 14.29 15.1765L12.9755 15.1779C12.5068 15.1779 12.1972 15.3676 12.0554 15.7417ZM11.9491 18.9605V19.835C11.9458 19.835 11.9423 19.835 11.9388 19.835H9.3376C9.36685 19.5638 9.45132 19.3539 9.59004 19.2087C9.79639 18.9928 10.087 18.9605 10.2419 18.9605H11.9491ZM15.8771 13.0114H12.5466C12.4129 12.5906 12.2937 12.1297 12.1956 11.6561L13.2082 10.9989C13.7609 10.6399 14.0484 10.1328 13.9971 9.60732C13.9516 9.14155 13.6349 8.72549 13.1904 8.54741C12.7844 8.38481 12.3475 8.43589 11.9613 8.68281C11.9931 8.33252 12.0524 8.01982 12.1381 7.7544C12.2942 7.73828 12.4493 7.70776 12.6015 7.66299C12.9114 7.59102 13.1978 7.47632 13.4563 7.32422C14.1617 7.74561 15.7129 9.1124 15.8771 13.0114ZM9.52065 4.07402C9.69336 2.90391 10.6803 2.0042 11.8682 2.0042C13.1773 2.0042 14.2425 3.09702 14.2425 4.44023C14.2425 5.53272 13.7186 6.41323 12.8739 6.80073V4.87383C12.8739 4.54019 12.7462 4.13091 12.1381 4.07554C12.1271 4.07451 12.116 4.07402 12.1049 4.07402H9.52065ZM10.0738 5.22847C10.0738 5.08394 10.0903 4.94277 10.1227 4.80645H12.0869C12.1095 4.80889 12.126 4.81152 12.1378 4.81392C12.1397 4.82749 12.1414 4.84702 12.1414 4.87383V7.01621C12.0542 7.02905 11.9664 7.03555 11.8786 7.0356C11.8778 7.0356 11.877 7.0356 11.8762 7.0356C10.8822 7.03467 10.0738 6.22437 10.0738 5.22847ZM9.59907 10.8886L10.4665 10.8185C10.5438 10.8123 10.617 10.7816 10.6759 10.7311L12.2413 9.38467L12.2416 9.38442C12.3929 9.254 12.5545 9.18711 12.7118 9.18711C12.7818 9.18711 12.851 9.20039 12.9181 9.22725C13.1116 9.30474 13.249 9.48188 13.2682 9.67847C13.2924 9.92588 13.1294 10.1767 12.8094 10.3845L11.065 11.5167H9.59917V10.8886H9.59907ZM8.05142 11.0138L8.86665 10.9479V11.5168H7.91934C7.79653 11.5168 7.7666 11.4147 7.76309 11.3292C7.76109 11.2806 7.76567 11.0373 8.05142 11.0138ZM7.18467 10.761C7.07437 10.9418 7.02285 11.1534 7.0313 11.3591C7.0335 11.4124 7.04028 11.4637 7.04976 11.5137C7.04976 11.5147 7.04917 11.5158 7.04937 11.5167H5.27515V10.1265L7.18608 10.7582C7.1855 10.7591 7.18521 10.7601 7.18467 10.761ZM7.92139 12.2492H11.1734C11.2441 12.2492 11.3134 12.2287 11.3728 12.1901L11.5385 12.0825C11.6183 12.435 11.7091 12.7779 11.808 13.1019C11.0611 13.3223 9.87564 14.0348 9.87564 16.3322V18.2649C9.6187 18.3167 9.31475 18.4366 9.0605 18.7026C8.79248 18.9831 8.63941 19.3631 8.60269 19.8349H7.86392C7.11948 17.6895 6.83638 15.4065 7.92139 12.2492ZM8.525 21.5C8.38965 21.1888 8.25918 20.8787 8.13633 20.5674H11.9388C12.4316 20.5674 12.6814 20.343 12.6814 19.9006V18.5943V17.2124H15.572C15.7743 17.2124 15.9382 17.0485 15.9382 16.8462C15.9382 16.6439 15.7743 16.48 15.572 16.48H12.6841C12.6888 16.272 12.7021 16.1019 12.7402 16.0014C12.7587 15.9525 12.7748 15.9103 12.9759 15.9103L14.2907 15.9089C15.1142 15.9082 15.7033 15.7089 16.0917 15.2999C16.1097 15.2809 16.1267 15.261 16.1437 15.2413H18.4731H21.0911V16.2478C21.0911 16.3736 20.985 16.48 20.8594 16.48H17.2136C17.0113 16.48 16.8474 16.6439 16.8474 16.8462C16.8474 17.0485 17.0113 17.2124 17.2136 17.2124H20.6442C20.9336 17.7497 21.194 18.4182 21.1785 19.4744C20.454 18.468 19.2811 17.8209 17.95 17.8209C16.8809 17.8209 15.8778 18.2402 15.1253 19.0017C14.4576 19.6773 14.0565 20.5542 13.974 21.5013L8.525 21.5ZM17.9956 24.1721C16.8508 24.1721 15.8853 23.3472 15.6517 22.2338H20.3396C20.1059 23.3471 19.1404 24.1721 17.9956 24.1721ZM20.7556 21.5014H15.2357H14.7096C14.8894 19.8455 16.274 18.5533 17.95 18.5533C19.4214 18.5533 20.6571 19.5235 21.0663 20.8818C21.0676 20.8861 21.0689 20.8904 21.0704 20.8946C21.1283 21.0895 21.1691 21.2923 21.1913 21.5014H20.7556ZM24.2676 13.9137C24.2676 14.2419 24.0009 14.5088 23.6732 14.5088H18.8393V12.6177H24.2676V13.9137ZM24.2676 11.8853H18.8393V11.1064H24.2676V11.8853ZM24.2676 10.374H18.8393V9.62925C18.8393 9.30107 19.106 9.03413 19.4337 9.03413H23.6732C24.0009 9.03413 24.2676 9.30112 24.2676 9.62925V10.374Z" fill="#B2B2B2"/>
</svg>
