<svg width="30" height="31" viewBox="0 0 30 31" fill="none" xmlns="http://www.w3.org/2000/svg">
<path d="M24.287 11.6345H22.3983L22.9673 5.10077C22.9684 5.08894 22.9686 5.07728 22.9686 5.06562C22.9686 5.06462 22.9688 5.06368 22.9688 5.06269C22.9688 5.06251 22.9688 5.06239 22.9688 5.06222C22.9688 4.88439 22.8615 4.72765 22.7038 4.6595C22.7024 4.65892 22.7012 4.65821 22.6998 4.65763C22.69 4.65353 22.6799 4.65001 22.6697 4.64661C22.6659 4.64538 22.6622 4.64386 22.6584 4.64269C22.6501 4.64017 22.6416 4.63817 22.6331 4.63612C22.6271 4.63472 22.6213 4.63302 22.6153 4.63185C22.6079 4.63038 22.6001 4.62944 22.5925 4.62833C22.5854 4.62728 22.5783 4.62605 22.5711 4.6254C22.5699 4.62528 22.5688 4.62505 22.5676 4.62493C22.5598 4.62423 22.5522 4.62435 22.5445 4.62405C22.5394 4.62388 22.5343 4.62329 22.5292 4.62329H22.5237C22.5232 4.62329 22.5227 4.62329 22.5223 4.62329H13.5357C13.2932 4.62329 13.0963 4.82017 13.0963 5.06274C13.0963 5.30474 13.2932 5.5022 13.5357 5.5022H22.0502L21.1756 15.5437C21.1755 15.5445 21.1755 15.5452 21.1754 15.546L20.9547 18.0796H5.68465L5.94006 15.443H8.84754C9.09029 15.443 9.28699 15.2463 9.28699 15.0036C9.28699 14.7609 9.09029 14.5641 8.84754 14.5641H6.02525L6.56455 8.99802H11.192C11.4347 8.99802 11.6314 8.80126 11.6314 8.55857C11.6314 8.31587 11.4347 8.11911 11.192 8.11911H6.64975L6.90334 5.5022H11.7779C12.0199 5.5022 12.2174 5.30474 12.2174 5.06274C12.2174 4.82017 12.0199 4.62329 11.7779 4.62329H6.50449C6.50426 4.62329 6.50408 4.62335 6.50385 4.62335C6.29742 4.62329 6.11836 4.7686 6.07506 4.97005C6.07477 4.97151 6.07424 4.97292 6.07395 4.97439C6.07172 4.98534 6.07025 4.99653 6.06879 5.00778C6.06838 5.01136 6.06762 5.01476 6.06727 5.01833C6.06721 5.01903 6.06703 5.01968 6.06697 5.02038L5.76674 8.11911H0.439453C0.196699 8.11911 0 8.31587 0 8.55857C0 8.80126 0.196699 8.99802 0.439453 8.99802H5.68154L5.14225 14.5641H3.57434C3.33158 14.5641 3.13488 14.7609 3.13488 15.0036C3.13488 15.2463 3.33158 15.443 3.57434 15.443H5.05711L4.76344 18.4736C4.76338 18.474 4.76338 18.4745 4.76332 18.4749L4.30928 23.1612C4.30922 23.1617 4.30916 23.1623 4.3091 23.1628L4.30893 23.1645C4.30834 23.1706 4.3084 23.1765 4.30805 23.1826C4.30764 23.1907 4.30682 23.1986 4.30682 23.2068C4.30682 23.2072 4.30687 23.2075 4.30687 23.2079C4.30687 23.2193 4.3077 23.2304 4.30852 23.2415C4.30887 23.2451 4.30875 23.2487 4.30916 23.2522C4.31033 23.2636 4.31227 23.2748 4.31432 23.2859C4.3149 23.2892 4.3152 23.2926 4.31584 23.2958C4.31754 23.3042 4.31994 23.3124 4.32217 23.3206C4.32369 23.3264 4.32492 23.3323 4.32668 23.338C4.32721 23.3396 4.32791 23.3411 4.32838 23.3428C4.34965 23.4082 4.38574 23.4669 4.43285 23.5148C4.43373 23.5157 4.43443 23.5167 4.43531 23.5175C4.44 23.5222 4.4451 23.5264 4.45002 23.5309C4.48031 23.5586 4.51453 23.5822 4.55197 23.6006C4.55977 23.6045 4.56744 23.6085 4.57541 23.6119C4.57781 23.6129 4.58039 23.6136 4.58285 23.6146C4.59387 23.619 4.60494 23.6232 4.61637 23.6268C4.61742 23.6271 4.61842 23.6272 4.61947 23.6276C4.63248 23.6315 4.64561 23.6349 4.65902 23.6376C4.66078 23.638 4.6626 23.6381 4.6643 23.6384C4.67707 23.6408 4.6899 23.6429 4.70297 23.6442C4.70326 23.6442 4.7035 23.6442 4.70379 23.6443C4.7182 23.6457 4.7325 23.6464 4.74668 23.6464C4.74686 23.6464 4.74709 23.6463 4.74732 23.6463H6.70365C6.91969 25.2842 8.32389 26.5528 10.0199 26.5528C11.7158 26.5528 13.12 25.2842 13.336 23.6463H20.3848C20.6009 25.2842 22.005 26.5528 23.7009 26.5528C25.3968 26.5528 26.8011 25.2842 27.0172 23.6463H28.974C28.9743 23.6463 28.9747 23.6464 28.975 23.6464C28.9896 23.6464 29.004 23.6455 29.0183 23.6441C29.0209 23.6439 29.0234 23.6434 29.0259 23.6431C29.0374 23.6417 29.0487 23.6401 29.0599 23.6379C29.0647 23.637 29.0693 23.6357 29.074 23.6346C29.0827 23.6326 29.0913 23.6305 29.0998 23.6279C29.1055 23.6262 29.1111 23.6243 29.1167 23.6223C29.1239 23.6199 29.1311 23.6173 29.1382 23.6144C29.1443 23.612 29.1501 23.6094 29.156 23.6067C29.1625 23.6037 29.1689 23.6007 29.1752 23.5975C29.1812 23.5944 29.1869 23.5913 29.1926 23.588C29.1987 23.5845 29.2046 23.5808 29.2106 23.5771C29.2161 23.5736 29.2216 23.57 29.2269 23.5662C29.2328 23.5621 29.2385 23.5577 29.2443 23.5532C29.2491 23.5494 29.254 23.5457 29.2587 23.5417C29.2647 23.5366 29.2704 23.5313 29.2761 23.5258C29.2801 23.522 29.2843 23.5183 29.2881 23.5143C29.2942 23.5081 29.3 23.5015 29.3058 23.4949C29.3089 23.4913 29.3122 23.4878 29.3152 23.4842C29.3216 23.4762 29.3275 23.468 29.3333 23.4598C29.3353 23.4569 29.3375 23.4542 29.3395 23.4513C29.3466 23.4406 29.3534 23.4295 29.3596 23.4182C29.36 23.4175 29.3605 23.4168 29.3608 23.4161C29.3674 23.4039 29.3735 23.3914 29.379 23.3785C29.3805 23.3748 29.3817 23.371 29.3831 23.3673C29.3867 23.3582 29.3902 23.3492 29.3932 23.3397C29.3951 23.3336 29.3965 23.3274 29.3982 23.3212C29.4002 23.3139 29.4022 23.3066 29.4039 23.2992C29.4053 23.2926 29.4063 23.2858 29.4074 23.279C29.4084 23.2731 29.4097 23.2673 29.4104 23.2613C29.4291 23.112 29.7732 20.3511 29.9269 18.5659C29.9271 18.5642 29.9271 18.5624 29.9273 18.5607C29.9715 18.0461 29.9999 17.6127 29.9999 17.3474C29.9999 14.1973 27.4371 11.6345 24.287 11.6345ZM22.3217 12.5135H24.1195L23.8899 15.15H22.0921L22.3217 12.5135ZM10.02 25.6738C8.65963 25.6738 7.55291 24.5671 7.55291 23.2068C7.55291 21.8465 8.65969 20.7397 10.02 20.7397C11.3803 20.7397 12.487 21.8465 12.487 23.2068C12.487 24.5671 11.3803 25.6738 10.02 25.6738ZM23.7009 25.6738C22.3406 25.6738 21.234 24.5671 21.234 23.2068C21.234 21.8465 22.3407 20.7397 23.7009 20.7397C25.0613 20.7397 26.168 21.8465 26.168 23.2068C26.168 24.5671 25.0613 25.6738 23.7009 25.6738ZM28.5857 22.7671H27.0173C26.8014 21.1292 25.3971 19.8605 23.7011 19.8605C22.0051 19.8605 20.6009 21.1292 20.3849 22.7671H13.3362C13.1202 21.1292 11.716 19.8605 10.02 19.8605C8.324 19.8605 6.91969 21.1292 6.70371 22.7671H5.23043L5.59951 18.9583H21.3574V18.9585C21.3577 18.9585 21.3578 18.9585 21.3581 18.9585C21.3728 18.9585 21.3874 18.9577 21.4018 18.9563C21.4045 18.956 21.4071 18.9554 21.4098 18.9551C21.4213 18.9537 21.4327 18.9521 21.444 18.9499C21.4488 18.9489 21.4536 18.9475 21.4584 18.9464C21.4672 18.9442 21.476 18.9422 21.4845 18.9396C21.4904 18.9379 21.4959 18.9358 21.5016 18.9338C21.509 18.9312 21.5164 18.9287 21.5235 18.9257C21.5297 18.9232 21.5356 18.9204 21.5416 18.9176C21.5481 18.9146 21.5546 18.9116 21.5609 18.9083C21.5668 18.9052 21.5727 18.9018 21.5786 18.8984C21.5846 18.8949 21.5906 18.8913 21.5965 18.8875C21.6022 18.8838 21.6076 18.88 21.613 18.8761C21.6188 18.872 21.6244 18.8678 21.6301 18.8634C21.6351 18.8593 21.6401 18.8552 21.645 18.8509C21.6506 18.8461 21.656 18.8412 21.6613 18.8361C21.6657 18.8318 21.6702 18.8274 21.6745 18.8229C21.6798 18.8174 21.6849 18.8117 21.6899 18.8059C21.6939 18.8013 21.6977 18.7968 21.7015 18.7921C21.7063 18.7859 21.711 18.7796 21.7155 18.7732C21.719 18.7684 21.7223 18.7636 21.7256 18.7587C21.7299 18.7521 21.734 18.7453 21.7379 18.7384C21.7409 18.7332 21.744 18.728 21.7467 18.7228C21.7504 18.7158 21.7535 18.7088 21.7569 18.7017C21.7594 18.696 21.7621 18.6905 21.7644 18.6846C21.7673 18.6777 21.7697 18.6706 21.7722 18.6635C21.7744 18.6573 21.7767 18.651 21.7786 18.6445C21.7805 18.6377 21.7821 18.6308 21.7839 18.6239C21.7856 18.6169 21.7874 18.61 21.7888 18.6029C21.7901 18.596 21.791 18.5889 21.792 18.5819C21.7931 18.5746 21.7943 18.5675 21.795 18.5601C21.7951 18.5591 21.7954 18.5581 21.7954 18.557L22.0157 16.0287H24.2869C25.6333 16.0287 26.2406 16.7263 26.8834 17.4649C27.4138 18.0744 28.0061 18.7543 29.0127 18.9202C28.8848 20.272 28.6782 22.0073 28.5857 22.7671ZM29.0878 18.0396C28.4348 17.9064 28.033 17.4474 27.5463 16.8881C26.9375 16.1888 26.1944 15.3354 24.7698 15.1764L24.9971 12.5661C27.3271 12.9107 29.121 14.9233 29.121 17.3475C29.121 17.5122 29.1087 17.7515 29.0878 18.0396Z" fill="black"/>
<path d="M10.02 21.5953C9.13156 21.5953 8.40869 22.3181 8.40869 23.2067C8.40869 24.0952 9.13156 24.818 10.02 24.818C10.9085 24.818 11.6313 24.0952 11.6313 23.2067C11.6313 22.3182 10.9085 21.5953 10.02 21.5953ZM10.02 23.9391C9.61613 23.9391 9.2876 23.6106 9.2876 23.2067C9.2876 22.8028 9.61613 22.4742 10.02 22.4742C10.4239 22.4742 10.7524 22.8028 10.7524 23.2067C10.7524 23.6106 10.4238 23.9391 10.02 23.9391Z" fill="black"/>
<path d="M23.7009 21.5953C22.8125 21.5953 22.0896 22.3181 22.0896 23.2067C22.0896 24.0952 22.8125 24.818 23.7009 24.818C24.5894 24.818 25.3123 24.0952 25.3123 23.2067C25.3123 22.3182 24.5894 21.5953 23.7009 21.5953ZM23.7009 23.9391C23.297 23.9391 22.9685 23.6106 22.9685 23.2067C22.9685 22.8028 23.297 22.4742 23.7009 22.4742C24.1048 22.4742 24.4333 22.8028 24.4333 23.2067C24.4333 23.6106 24.1048 23.9391 23.7009 23.9391Z" fill="black"/>
<path d="M4.16024 11.6346H2.01184C1.76909 11.6346 1.57239 11.8314 1.57239 12.0741C1.57239 12.3168 1.76909 12.5135 2.01184 12.5135H4.16024C4.40299 12.5135 4.59969 12.3168 4.59969 12.0741C4.59969 11.8314 4.40299 11.6346 4.16024 11.6346Z" fill="black"/>
</svg>
