<svg width="25" height="26" viewBox="0 0 25 26" fill="none" xmlns="http://www.w3.org/2000/svg">
<path d="M23.2422 6.44771H13.9648V1.07642C13.9648 0.806787 13.7462 0.588135 13.4766 0.588135H1.75781C1.48813 0.588135 1.26953 0.806787 1.26953 1.07642V25.0998C1.26953 25.3694 1.48813 25.5881 1.75781 25.5881H13.4766H23.2422C23.5119 25.5881 23.7305 25.3694 23.7305 25.0998V6.93599C23.7305 6.66631 23.5118 6.44771 23.2422 6.44771ZM13.9648 7.42427H22.7539V19.7287H13.9648V7.42427ZM6.15234 24.6115V20.7053H9.08203V24.6115H6.15234ZM9.57031 19.7287H5.66406C5.39438 19.7287 5.17578 19.9474 5.17578 20.217V24.6115H2.24609V1.5647H12.9883V24.6115H10.0586V20.217C10.0586 19.9474 9.83994 19.7287 9.57031 19.7287ZM13.9648 24.6115V20.7053H22.7539V24.6115H13.9648Z" fill="#BCBCBC"/>
<path d="M7.12891 4.49451H8.10532C8.375 4.49451 8.5936 4.2759 8.5936 4.00623V3.02966C8.5936 2.75999 8.375 2.54138 8.10532 2.54138H7.12891C6.85923 2.54138 6.64062 2.75999 6.64062 3.02966V4.00623C6.64062 4.2759 6.85923 4.49451 7.12891 4.49451Z" fill="#BCBCBC"/>
<path d="M7.12891 7.91248H8.10532C8.375 7.91248 8.5936 7.69387 8.5936 7.42419V6.44763C8.5936 6.17795 8.375 5.95935 8.10532 5.95935H7.12891C6.85923 5.95935 6.64062 6.17795 6.64062 6.44763V7.42419C6.64062 7.69387 6.85923 7.91248 7.12891 7.91248Z" fill="#BCBCBC"/>
<path d="M7.12891 11.3304H8.10532C8.375 11.3304 8.5936 11.1118 8.5936 10.8422V9.8656C8.5936 9.59592 8.375 9.37732 8.10532 9.37732H7.12891C6.85923 9.37732 6.64062 9.59592 6.64062 9.8656V10.8422C6.64062 11.1118 6.85923 11.3304 7.12891 11.3304Z" fill="#BCBCBC"/>
<path d="M7.12891 14.7483H8.10532C8.375 14.7483 8.5936 14.5297 8.5936 14.26V13.2834C8.5936 13.0138 8.375 12.7952 8.10532 12.7952H7.12891C6.85923 12.7952 6.64062 13.0138 6.64062 13.2834V14.26C6.64062 14.5297 6.85923 14.7483 7.12891 14.7483Z" fill="#BCBCBC"/>
<path d="M7.12891 18.1663H8.10532C8.375 18.1663 8.5936 17.9477 8.5936 17.678V16.7014C8.5936 16.4317 8.375 16.2131 8.10532 16.2131H7.12891C6.85923 16.2131 6.64062 16.4317 6.64062 16.7014V17.678C6.64062 17.9477 6.85923 18.1663 7.12891 18.1663Z" fill="#BCBCBC"/>
<path d="M3.71094 4.49451H4.68735C4.95703 4.49451 5.17563 4.2759 5.17563 4.00623V3.02966C5.17563 2.75999 4.95703 2.54138 4.68735 2.54138H3.71094C3.44126 2.54138 3.22266 2.75999 3.22266 3.02966V4.00623C3.22266 4.2759 3.44126 4.49451 3.71094 4.49451Z" fill="#BCBCBC"/>
<path d="M3.71094 7.91248H4.68735C4.95703 7.91248 5.17563 7.69387 5.17563 7.42419V6.44763C5.17563 6.17795 4.95703 5.95935 4.68735 5.95935H3.71094C3.44126 5.95935 3.22266 6.17795 3.22266 6.44763V7.42419C3.22266 7.69387 3.44126 7.91248 3.71094 7.91248Z" fill="#BCBCBC"/>
<path d="M3.71094 11.3304H4.68735C4.95703 11.3304 5.17563 11.1118 5.17563 10.8422V9.8656C5.17563 9.59592 4.95703 9.37732 4.68735 9.37732H3.71094C3.44126 9.37732 3.22266 9.59592 3.22266 9.8656V10.8422C3.22266 11.1118 3.44126 11.3304 3.71094 11.3304Z" fill="#BCBCBC"/>
<path d="M3.71094 14.7483H4.68735C4.95703 14.7483 5.17563 14.5297 5.17563 14.26V13.2834C5.17563 13.0138 4.95703 12.7952 4.68735 12.7952H3.71094C3.44126 12.7952 3.22266 13.0138 3.22266 13.2834V14.26C3.22266 14.5297 3.44126 14.7483 3.71094 14.7483Z" fill="#BCBCBC"/>
<path d="M3.71094 18.1663H4.68735C4.95703 18.1663 5.17563 17.9477 5.17563 17.678V16.7014C5.17563 16.4317 4.95703 16.2131 4.68735 16.2131H3.71094C3.44126 16.2131 3.22266 16.4317 3.22266 16.7014V17.678C3.22266 17.9477 3.44126 18.1663 3.71094 18.1663Z" fill="#BCBCBC"/>
<path d="M11.5233 2.54138H10.5469C10.2772 2.54138 10.0586 2.75999 10.0586 3.02966V4.00623C10.0586 4.2759 10.2772 4.49451 10.5469 4.49451H11.5233C11.793 4.49451 12.0116 4.2759 12.0116 4.00623V3.02966C12.0116 2.75999 11.793 2.54138 11.5233 2.54138Z" fill="#BCBCBC"/>
<path d="M11.5233 5.95923H10.5469C10.2772 5.95923 10.0586 6.17783 10.0586 6.44751V7.42407C10.0586 7.69375 10.2772 7.91235 10.5469 7.91235H11.5233C11.793 7.91235 12.0116 7.69375 12.0116 7.42407V6.44751C12.0116 6.17788 11.793 5.95923 11.5233 5.95923Z" fill="#BCBCBC"/>
<path d="M11.5233 9.3772H10.5469C10.2772 9.3772 10.0586 9.5958 10.0586 9.86548V10.842C10.0586 11.1117 10.2772 11.3303 10.5469 11.3303H11.5233C11.793 11.3303 12.0116 11.1117 12.0116 10.842V9.86548C12.0116 9.59585 11.793 9.3772 11.5233 9.3772Z" fill="#BCBCBC"/>
<path d="M11.5233 12.7952H10.5469C10.2772 12.7952 10.0586 13.0138 10.0586 13.2834V14.26C10.0586 14.5297 10.2772 14.7483 10.5469 14.7483H11.5233C11.793 14.7483 12.0116 14.5297 12.0116 14.26V13.2834C12.0116 13.0138 11.793 12.7952 11.5233 12.7952Z" fill="#BCBCBC"/>
<path d="M11.5233 16.2131H10.5469C10.2772 16.2131 10.0586 16.4317 10.0586 16.7014V17.678C10.0586 17.9477 10.2772 18.1663 10.5469 18.1663H11.5233C11.793 18.1663 12.0116 17.9477 12.0116 17.678V16.7014C12.0116 16.4317 11.793 16.2131 11.5233 16.2131Z" fill="#BCBCBC"/>
<path d="M20.5565 9.3772H19.5801C19.3104 9.3772 19.0918 9.5958 19.0918 9.86548V10.842C19.0918 11.1117 19.3104 11.3303 19.5801 11.3303H20.5565C20.8262 11.3303 21.0448 11.1117 21.0448 10.842V9.86548C21.0448 9.59585 20.8261 9.3772 20.5565 9.3772Z" fill="#BCBCBC"/>
<path d="M20.5565 12.7952H19.5801C19.3104 12.7952 19.0918 13.0138 19.0918 13.2834V14.26C19.0918 14.5297 19.3104 14.7483 19.5801 14.7483H20.5565C20.8262 14.7483 21.0448 14.5297 21.0448 14.26V13.2834C21.0448 13.0138 20.8261 12.7952 20.5565 12.7952Z" fill="#BCBCBC"/>
<path d="M20.5565 16.2131H19.5801C19.3104 16.2131 19.0918 16.4317 19.0918 16.7014V17.678C19.0918 17.9477 19.3104 18.1663 19.5801 18.1663H20.5565C20.8262 18.1663 21.0448 17.9477 21.0448 17.678V16.7014C21.0448 16.4317 20.8261 16.2131 20.5565 16.2131Z" fill="#BCBCBC"/>
<path d="M17.1385 9.3772H16.1621C15.8924 9.3772 15.6738 9.5958 15.6738 9.86548V10.842C15.6738 11.1117 15.8924 11.3303 16.1621 11.3303H17.1385C17.4082 11.3303 17.6268 11.1117 17.6268 10.842V9.86548C17.6268 9.59585 17.4082 9.3772 17.1385 9.3772Z" fill="#BCBCBC"/>
<path d="M17.1385 12.7952H16.1621C15.8924 12.7952 15.6738 13.0138 15.6738 13.2834V14.26C15.6738 14.5297 15.8924 14.7483 16.1621 14.7483H17.1385C17.4082 14.7483 17.6268 14.5297 17.6268 14.26V13.2834C17.6268 13.0138 17.4082 12.7952 17.1385 12.7952Z" fill="#BCBCBC"/>
<path d="M17.1385 16.2131H16.1621C15.8924 16.2131 15.6738 16.4317 15.6738 16.7014V17.678C15.6738 17.9477 15.8924 18.1663 16.1621 18.1663H17.1385C17.4082 18.1663 17.6268 17.9477 17.6268 17.678V16.7014C17.6268 16.4317 17.4082 16.2131 17.1385 16.2131Z" fill="#BCBCBC"/>
</svg>
