<svg width="36" height="38" viewBox="0 0 36 38" fill="none" xmlns="http://www.w3.org/2000/svg">
<path d="M27.1993 28.1334C32.052 28.1334 36 24.0757 36 19.0881C36 14.1006 32.052 10.0428 27.1993 10.0428C25.1313 10.0428 22.6567 11.2873 19.6342 13.8472C19.6194 13.8597 19.605 13.8721 19.5903 13.8846L23.2374 17.6503C26.0265 15.3573 27.1512 15.3297 27.1993 15.3297C29.2156 15.3297 30.8561 17.0156 30.8561 19.0881C30.8561 21.1605 29.2157 22.8465 27.1993 22.8465C27.1492 22.8465 25.9376 22.817 22.9055 20.249C22.5549 19.9521 16.8642 14.2692 16.3659 13.8472C13.3433 11.2873 10.8688 10.0428 8.80081 10.0428C3.94805 10.0428 0 14.1006 0 19.0881C0 24.0757 3.94805 28.1334 8.80073 28.1334C10.8687 28.1334 13.3433 26.8889 16.3658 24.329C16.3795 24.3174 16.3929 24.3058 16.4066 24.2942L12.771 20.5188C9.97643 22.8181 8.84897 22.8465 8.80073 22.8465C6.78438 22.8465 5.14392 21.1606 5.14392 19.0881C5.14392 17.0157 6.78431 15.3297 8.80073 15.3297C8.85038 15.3297 10.19 15.1949 13.0551 17.8939C14.5167 19.2708 19.2701 24.0416 19.6341 24.3291C22.74 26.7814 25.1313 28.1334 27.1993 28.1334Z" fill="black"/>
</svg>
