<svg width="25" height="26" viewBox="0 0 25 26" fill="none" xmlns="http://www.w3.org/2000/svg">
<path d="M3.00274 14.2409C2.95448 13.8389 2.92969 13.4395 2.92969 13.0881C2.92969 7.84388 7.25574 3.51782 12.5 3.51782C14.9462 3.51782 17.2363 4.50411 18.9209 6.0422L18.0761 6.90165C17.8858 7.092 17.8125 7.37029 17.8858 7.63407C17.9737 7.88298 18.1787 8.07352 18.4423 8.13208C18.5898 8.16164 23.4333 9.72243 23.1249 9.66044C23.5172 9.79109 24.0974 9.37262 23.9893 8.79622C23.9595 8.64859 22.8872 3.26815 22.9492 3.57638C22.8907 3.31278 22.7001 3.09306 22.4365 3.01981C22.1876 2.94657 21.9091 3.01981 21.7188 3.21017L21.0011 3.91322C18.7891 1.84794 15.7518 0.588135 12.5 0.588135C5.62992 0.588135 0 6.21806 0 13.0881V13.1173C0 13.5303 0.0188828 13.8494 0.0408173 14.0935C0.0699997 14.417 0.308418 14.6819 0.626945 14.7458L2.13165 15.0466C2.62146 15.1446 3.06187 14.734 3.00274 14.2409Z" fill="black"/>
<path d="M24.3775 11.4294L22.8684 11.1219C22.378 11.022 21.9345 11.433 21.9948 11.9283C22.0471 12.3558 22.0703 12.7714 22.0703 13.0882C22.0703 18.3322 17.7443 22.6585 12.5 22.6585C10.0538 22.6585 7.76368 21.6722 6.07911 20.1194L6.92388 19.2747C7.11423 19.0843 7.18747 18.806 7.11423 18.5422C7.0263 18.2931 6.82126 18.1028 6.55766 18.0442C6.41023 18.0145 1.5667 16.4539 1.87512 16.5159C1.62602 16.472 1.37692 16.5453 1.21594 16.7209C1.04009 16.8821 0.966844 17.1457 1.01071 17.3801C1.04047 17.5275 2.11297 22.8591 2.05098 22.5509C2.10935 22.8147 2.29989 23.0344 2.56349 23.1075C2.86923 23.1842 3.12444 23.0915 3.28122 22.9171L3.98446 22.2141C6.19622 24.2796 9.23348 25.5882 12.5 25.5882C19.3701 25.5882 25 19.9583 25 13.0882V13.0441C25 12.7195 24.9882 12.4008 24.9611 12.084C24.9333 11.7603 24.6958 11.4944 24.3775 11.4294Z" fill="black"/>
</svg>
