<svg width="26" height="29" viewBox="0 0 26 29" fill="none" xmlns="http://www.w3.org/2000/svg">
<path d="M10.9019 23.2657C9.64102 23.2657 8.61523 24.4596 8.61523 25.927C8.61523 27.3944 9.64102 28.5882 10.9019 28.5882C12.1627 28.5882 13.1885 27.3944 13.1885 25.927C13.1884 24.4596 12.1627 23.2657 10.9019 23.2657ZM10.9019 27.1022C10.345 27.1022 9.89198 26.5749 9.89198 25.9269C9.89198 25.2788 10.345 24.7515 10.9019 24.7515C11.4587 24.7515 11.9118 25.2788 11.9118 25.9269C11.9118 26.575 11.4587 27.1022 10.9019 27.1022Z" fill="black"/>
<path d="M18.9226 23.2657C17.6618 23.2657 16.636 24.4596 16.636 25.927C16.636 27.3944 17.6618 28.5882 18.9226 28.5882C20.1835 28.5882 21.2092 27.3944 21.2092 25.927C21.2092 24.4596 20.1834 23.2657 18.9226 23.2657ZM18.9226 27.1022C18.3657 27.1022 17.9127 26.5749 17.9127 25.9269C17.9127 25.2788 18.3658 24.7515 18.9226 24.7515C19.4795 24.7515 19.9325 25.2788 19.9325 25.9269C19.9325 26.575 19.4794 27.1022 18.9226 27.1022Z" fill="black"/>
<path d="M19.4855 9.25464H10.3373C9.98477 9.25464 9.69897 9.58725 9.69897 9.99759C9.69897 10.4079 9.98482 10.7405 10.3373 10.7405H19.4855C19.8381 10.7405 20.1239 10.4079 20.1239 9.99759C20.1239 9.5872 19.8381 9.25464 19.4855 9.25464Z" fill="black"/>
<path d="M18.9877 13.1127H10.8354C10.4828 13.1127 10.197 13.4453 10.197 13.8556C10.197 14.266 10.4828 14.5986 10.8354 14.5986H18.9877C19.3402 14.5986 19.626 14.266 19.626 13.8556C19.626 13.4453 19.3402 13.1127 18.9877 13.1127Z" fill="black"/>
<path d="M25.7127 5.94438C25.4692 5.59664 25.1085 5.39723 24.723 5.39723H4.83836L4.43678 3.12844C4.35294 2.65516 4.07558 2.25777 3.69467 2.06529L0.892707 0.649837C0.56923 0.486306 0.193296 0.659056 0.0529877 1.03541C-0.0874733 1.41187 0.0609604 1.84945 0.384285 2.01275L3.18629 3.42825L6.27512 20.8782C6.39679 21.5654 6.92268 22.0642 7.52561 22.0642H22.8192C23.1718 22.0642 23.4576 21.7316 23.4576 21.3213C23.4576 20.911 23.1718 20.5783 22.8192 20.5783H7.52566L7.14993 18.4557H22.9374C23.5403 18.4557 24.0662 17.9569 24.1879 17.2697L25.9735 7.18277C26.0512 6.74354 25.9562 6.29207 25.7127 5.94438ZM22.9374 16.9699H6.88693L5.10141 6.88307L24.7229 6.88313L22.9374 16.9699Z" fill="black"/>
</svg>
