<svg width="28" height="29" viewBox="0 0 28 29" fill="none" xmlns="http://www.w3.org/2000/svg">
<path d="M26.1363 10.1411H17.509L15.8239 5.14799C15.7767 4.18275 14.9768 3.41199 14 3.41199C13.0233 3.41199 12.2233 4.18275 12.1762 5.14793L10.4909 10.141H1.86369C0.836061 10.1411 0 10.9771 0 12.0048V23.9007C0 24.9283 0.836061 25.7644 1.86369 25.7644H3.85502C4.13524 25.7644 4.3623 25.5372 4.3623 25.2571C4.3623 24.9769 4.13524 24.7498 3.85502 24.7498H1.86369C1.39546 24.7498 1.01451 24.3688 1.01451 23.9006V12.0048C1.01451 11.5366 1.39546 11.1556 1.86369 11.1556H10.8535C10.854 11.1556 10.8546 11.1558 10.8551 11.1558C10.8557 11.1558 10.8563 11.1556 10.8568 11.1556H17.1431C17.1437 11.1556 17.1443 11.1558 17.1448 11.1558C17.1454 11.1558 17.1459 11.1556 17.1465 11.1556H26.1363C26.6045 11.1556 26.9855 11.5366 26.9855 12.0048V23.9007C26.9855 24.3689 26.6045 24.7498 26.1363 24.7498H5.47831C5.19809 24.7498 4.97103 24.977 4.97103 25.2571C4.97103 25.5373 5.19809 25.7644 5.47831 25.7644H26.1363C27.1639 25.7644 28 24.9283 28 23.9007V12.0048C27.9999 10.9771 27.1639 10.1411 26.1363 10.1411ZM14 4.4266C14.4474 4.4266 14.8115 4.79071 14.8115 5.23817C14.8115 5.68562 14.4474 6.04973 14 6.04973C13.5525 6.04973 13.1884 5.68562 13.1884 5.23817C13.1884 4.79071 13.5525 4.4266 14 4.4266ZM11.5616 10.1411L12.7635 6.58047C13.089 6.8806 13.5234 7.06429 13.9999 7.06429C14.4765 7.06429 14.9109 6.8806 15.2363 6.58047L16.4381 10.1411H11.5616Z" fill="#A7A7A7"/>
<path d="M17.6671 14.9738C17.3869 14.9738 17.1598 15.2009 17.1598 15.481V18.7021L14.9048 15.2061C14.7828 15.0171 14.5508 14.9309 14.3351 14.9945C14.1194 15.058 13.9712 15.2561 13.9712 15.481V20.4243C13.9712 20.7045 14.1983 20.9316 14.4785 20.9316C14.7587 20.9316 14.9858 20.7045 14.9858 20.4243V17.2033L17.2408 20.6993C17.3359 20.8468 17.498 20.9316 17.6671 20.9316C17.7148 20.9316 17.763 20.9248 17.8104 20.9109C18.0262 20.8474 18.1744 20.6493 18.1744 20.4243V15.481C18.1744 15.2009 17.9473 14.9738 17.6671 14.9738Z" fill="#A7A7A7"/>
<path d="M6.3951 18.4283C7.01488 18.1403 7.44576 17.5123 7.44576 16.7851C7.44576 15.7864 6.63327 14.9739 5.63462 14.9739H4.55684C4.27662 14.9739 4.04956 15.201 4.04956 15.4812V20.4245C4.04956 20.7046 4.27662 20.9318 4.55684 20.9318C4.83706 20.9318 5.06412 20.7046 5.06412 20.4245V18.5963H5.33236L6.45269 20.6659C6.54445 20.8356 6.71902 20.9318 6.89927 20.9318C6.98075 20.9318 7.06355 20.9121 7.14027 20.8706C7.38669 20.7372 7.47824 20.4293 7.34486 20.183L6.3951 18.4283ZM5.63593 17.5817C5.63478 17.5817 5.63369 17.5817 5.63254 17.5817H5.06412V15.9883H5.63462C6.07387 15.9883 6.43125 16.3457 6.43125 16.785C6.43125 17.2238 6.07453 17.5809 5.63593 17.5817Z" fill="#A7A7A7"/>
<path d="M12.0475 18.4732C12.3278 18.4732 12.5548 18.2461 12.5548 17.9659C12.5548 17.6858 12.3278 17.4586 12.0475 17.4586H10.2025V15.9884H12.0475V15.9883C12.3278 15.9883 12.5548 15.7612 12.5548 15.481C12.5548 15.2009 12.3278 14.9738 12.0475 14.9738H9.69527C9.41505 14.9738 9.18799 15.2009 9.18799 15.481V20.4243C9.18799 20.7045 9.41505 20.9316 9.69527 20.9316H12.0475C12.3278 20.9316 12.5548 20.7045 12.5548 20.4243C12.5548 20.1442 12.3278 19.9171 12.0475 19.9171H10.2025V18.4732H12.0475V18.4732Z" fill="#A7A7A7"/>
<path d="M21.6135 19.0353C21.3333 19.0353 21.1062 19.2624 21.1062 19.5426V20.4245C21.1062 20.7046 21.3333 20.9317 21.6135 20.9317C21.8937 20.9317 22.1208 20.7046 22.1208 20.4245V19.5426C22.1208 19.2624 21.8936 19.0353 21.6135 19.0353Z" fill="#A7A7A7"/>
<path d="M23.4432 14.9738H19.7841C19.5039 14.9738 19.2769 15.2009 19.2769 15.481C19.2769 15.7612 19.5039 15.9883 19.7841 15.9883H21.1064V18.1898C21.1064 18.4699 21.3335 18.697 21.6137 18.697C21.8939 18.697 22.121 18.4699 22.121 18.1898V15.9883H23.4432C23.7234 15.9883 23.9505 15.7612 23.9505 15.481C23.9504 15.2009 23.7233 14.9738 23.4432 14.9738Z" fill="#A7A7A7"/>
</svg>
