<svg width="15" height="16" viewBox="0 0 15 16" fill="none" xmlns="http://www.w3.org/2000/svg">
<path d="M10.0172 2.18048C7.72881 -0.122498 4.0043 -0.122498 1.71592 2.18048C-0.571972 4.48396 -0.571972 8.23174 1.71592 10.5352C3.75378 12.5856 6.92766 12.8052 9.21455 11.2042C9.26267 11.4333 9.3728 11.652 9.5499 11.8302L12.8825 15.1841C13.3682 15.6719 14.153 15.6719 14.6361 15.1841C15.1213 14.6959 15.1213 13.9061 14.6361 13.4193L11.3035 10.0644C11.1274 9.8877 10.9096 9.77637 10.6819 9.72795C12.2738 7.42597 12.0556 4.23235 10.0172 2.18048ZM8.96503 9.47633C7.25655 11.1957 4.47606 11.1957 2.76809 9.47633C1.0606 7.75696 1.0606 4.95924 2.76809 3.23986C4.47606 1.52099 7.25655 1.52099 8.96503 3.23986C10.6735 4.95924 10.6735 7.75696 8.96503 9.47633Z" fill="#525252"/>
</svg>
