<svg width="22" height="16" viewBox="0 0 22 16" fill="none" xmlns="http://www.w3.org/2000/svg">
<path d="M7.08817 13.2228H7.08917C7.09001 13.2228 7.09085 13.2227 7.09169 13.2227H18.7773C19.065 13.2227 19.318 13.0318 19.397 12.7552L21.9752 3.73177C22.0307 3.53723 21.9918 3.32809 21.8701 3.16663C21.7482 3.00516 21.5577 2.91016 21.3555 2.91016H5.60172L5.14098 0.836746C5.07535 0.54184 4.81384 0.332031 4.51172 0.332031H0.644531C0.288528 0.332031 0 0.62056 0 0.976562C0 1.33257 0.288528 1.62109 0.644531 1.62109H3.99475C4.07632 1.98851 6.19958 11.5434 6.32178 12.093C5.6368 12.3908 5.15625 13.0738 5.15625 13.8672C5.15625 14.9333 6.02368 15.8008 7.08984 15.8008H18.7773C19.1333 15.8008 19.4219 15.5123 19.4219 15.1562C19.4219 14.8002 19.1333 14.5117 18.7773 14.5117H7.08984C6.73451 14.5117 6.44531 14.2225 6.44531 13.8672C6.44531 13.5124 6.73351 13.2237 7.08817 13.2228ZM20.501 4.19922L18.2911 11.9336H7.60681L5.88806 4.19922H20.501Z" fill="black"/>
</svg>
