<svg width="24" height="25" viewBox="0 0 24 25" fill="none" xmlns="http://www.w3.org/2000/svg">
<path d="M7.73255 18.5899H7.73365C7.73456 18.5899 7.73548 18.5897 7.73639 18.5897H20.4844C20.7982 18.5897 21.0742 18.3999 21.1604 18.1248L23.9729 9.15047C24.0335 8.95699 23.991 8.74899 23.8583 8.5884C23.7254 8.42781 23.5175 8.33333 23.2969 8.33333H6.11096L5.60834 6.2712C5.53675 5.97789 5.25147 5.76923 4.92188 5.76923H0.703125C0.314758 5.76923 0 6.05619 0 6.41025C0 6.76432 0.314758 7.05128 0.703125 7.05128H4.35791C4.4469 7.4167 6.76319 16.9196 6.89649 17.4663C6.14923 17.7624 5.625 18.4417 5.625 19.2308C5.625 20.2911 6.57129 21.1538 7.73438 21.1538H20.4844C20.8727 21.1538 21.1875 20.8669 21.1875 20.5128C21.1875 20.1588 20.8727 19.8718 20.4844 19.8718H7.73438C7.34674 19.8718 7.03125 19.5842 7.03125 19.2308C7.03125 18.8779 7.34564 18.5907 7.73255 18.5899ZM22.3647 9.61538L19.9539 17.3077H8.29834L6.42334 9.61538H22.3647Z" fill="black"/>
<path d="M7.03125 23.0769C7.03125 24.1373 7.97754 25 9.14062 25C10.3037 25 11.25 24.1373 11.25 23.0769C11.25 22.0166 10.3037 21.1539 9.14062 21.1539C7.97754 21.1539 7.03125 22.0166 7.03125 23.0769ZM9.14062 22.4359C9.52826 22.4359 9.84375 22.7235 9.84375 23.0769C9.84375 23.4303 9.52826 23.718 9.14062 23.718C8.75299 23.718 8.4375 23.4303 8.4375 23.0769C8.4375 22.7235 8.75299 22.4359 9.14062 22.4359Z" fill="black"/>
<path d="M16.9688 23.0769C16.9688 24.1373 17.915 25 19.0781 25C20.2412 25 21.1875 24.1373 21.1875 23.0769C21.1875 22.0166 20.2412 21.1539 19.0781 21.1539C17.915 21.1539 16.9688 22.0166 16.9688 23.0769ZM19.0781 22.4359C19.4658 22.4359 19.7812 22.7235 19.7812 23.0769C19.7812 23.4303 19.4658 23.718 19.0781 23.718C18.6905 23.718 18.375 23.4303 18.375 23.0769C18.375 22.7235 18.6905 22.4359 19.0781 22.4359Z" fill="black"/>
</svg>
